<svg id="Layer_1" data-name="Layer 1" xmlns="http://www.w3.org/2000/svg" viewBox="0 0 45.17192 45.17192"><defs><style>.cls-1{fill:none;stroke:#ccc;stroke-linecap:round;stroke-linejoin:round;}.cls-2{opacity:0.3;}.cls-3{fill:#ccc;}</style></defs><g id="Layer_6" data-name="Layer 6"><circle class="cls-1" cx="22.58596" cy="22.58596" r="22.08596"/></g><g id="Layer_6-2" data-name="Layer 6" class="cls-2"><circle class="cls-3" cx="22.58596" cy="22.58596" r="22.08596"/></g><g id="Layer_2" data-name="Layer 2"><g id="Layer_2-2" data-name="Layer 2-2"><g id="Layer_1-2" data-name="Layer 1-2"><path class="cls-3" d="M20.92949,29.27635a5.86929,5.86929,0,0,1-4.52121-2.04916,5.62376,5.62376,0,0,1-1.40906-3.13458,5.92849,5.92849,0,0,1,1.9201-5.26509,7.29879,7.29879,0,0,1,1.51728-1.02181c.9605-.53182,1.919-1.06734,2.88119-1.596.19328-.10618.40129-.18516.59944-.2829.1397-.0689.19187-.02473.2263.12151a.86466.86466,0,0,1-.38512.9558c-.57641.34191-1.17.65463-1.75025.99027a17.80384,17.80384,0,0,0-2.20507,1.30239,5.0126,5.0126,0,0,0-1.8751,3.17557,4.84562,4.84562,0,0,0,.43664,3.0277,5.08093,5.08093,0,0,0,6.78843,2.35563q.10109-.049.19991-.10242a.94593.94593,0,0,1,1.19052.17709c.08824.10206.09253.16589-.03541.24017a7.4196,7.4196,0,0,1-2.54287,1.03064A6.05686,6.05686,0,0,1,20.92949,29.27635Z"/><path class="cls-3" d="M24.00474,16.2431a2.71339,2.71339,0,0,1-1.49762,2.47259c-1.06967.59334-2.14576,1.17553-3.20634,1.7847a3.22768,3.22768,0,0,0,3.07565,5.67185,3.12724,3.12724,0,0,1,1.73869-.4032,2.69363,2.69363,0,0,1,2.046,1.23551c.06663.097.05775.16884-.05556.23271-.1795.10119-.35284.21383-.52473.32776-.08719.05778-.14422.0457-.19754-.043a1.92427,1.92427,0,0,0-2.5369-.55656,4.12828,4.12828,0,0,1-5.98511-2.89428,4.17378,4.17378,0,0,1,2.21211-4.50839c1.04-.55489,2.06663-1.13532,3.09-1.72052a1.7986,1.7986,0,0,0,.87708-2.03259c-.0355-.15515-.02837-.23488.156-.24527.175-.00985.34828-.04965.52273-.07316.13473-.01817.21265.01441.2399.17679A5.21247,5.21247,0,0,1,24.00474,16.2431Z"/><path class="cls-3" d="M21.18149,24.884a1.87509,1.87509,0,0,0,1.15066-.571c.25-.23169.373-.23392.61788-.00076.06412.061.12749.12286.191.18452.23943.23248.24173.27965.02594.52387a2.90928,2.90928,0,0,1-3.16193.8087,2.71326,2.71326,0,0,1-1.58548-2.63385,2.66856,2.66856,0,0,1,1.99193-2.38367,2.39808,2.39808,0,0,1,1.04773-.09856c.23694.04025.285.1077.24324.34034-.01042.058-.01446.11714-.02462.1752-.07068.40342-.15331.47766-.56126.5065a1.637,1.637,0,0,0-1.55584,2.01687A1.60816,1.60816,0,0,0,21.18149,24.884Z"/><path class="cls-3" d="M29.39317,23.96352a5.99743,5.99743,0,0,0-2.47068-2.15323,5.68907,5.68907,0,0,0-3.50433-.4832,1.33254,1.33254,0,0,1-.22052.01386.43673.43673,0,0,1-.489-.37452.46815.46815,0,0,1,.37379-.5443,5.65,5.65,0,0,1,1.13464-.144,6.799,6.799,0,0,1,4.75212,1.74981,5.40045,5.40045,0,0,1,.777.86955.21114.21114,0,0,1,.04856.2409C29.665,23.40135,29.538,23.66553,29.39317,23.96352Z"/><path class="cls-3" d="M30.19249,21.41045c-.01889.1133.05965.28514-.03524.32913-.102.04727-.1767-.11978-.26213-.193A9.25726,9.25726,0,0,0,26.38441,19.654c-.14125-.04056-.281-.08762-.424-.12027-.14051-.03207-.16128-.08016-.08254-.20994a6.03,6.03,0,0,0,.78681-1.91056A4.49762,4.49762,0,0,0,26.784,16.276c-.00878-.17336.05781-.19314.19244-.113.11392.06779.2317.12925.34393.19966.431.27039.42916.27109.3397.77047a7.09825,7.09825,0,0,1-.46882,1.65038c-.05656.12708-.01324.16469.09661.203a10.19209,10.19209,0,0,1,2.58949,1.3666.54068.54068,0,0,1,.27681.50787C30.14211,21.04441,30.22149,21.22384,30.19249,21.41045Z"/><path class="cls-3" d="M24.081,22.13159a6.48089,6.48089,0,0,1,4.12361,1.56989c.24871.21035.47116.44544.70583.669.09263.08826.10587.15866.012.25891-.13557.14477-.26152.29937-.38241.45682-.09658.1258-.17641.12939-.27969.007a5.766,5.766,0,0,0-1.98215-1.4853,5.5505,5.5505,0,0,0-2.589-.54184.47.47,0,0,1-.44737-.26889.4305.4305,0,0,1,.0305-.4616.39265.39265,0,0,1,.34381-.20378C23.77111,22.13079,23.92606,22.13159,24.081,22.13159Z"/><path class="cls-3" d="M23.73256,24.44211a.47857.47857,0,0,1,.452-.45172,3.21581,3.21581,0,0,1,1.09375.23886,6.711,6.711,0,0,1,2.39247,1.4241c.11773.108.14181.17494-.002.28177a4.969,4.969,0,0,0-.463.4091c-.07784.07451-.12967.08843-.21823.00662a5.593,5.593,0,0,0-2.83743-1.43094A.50623.50623,0,0,1,23.73256,24.44211Z"/><path class="cls-3" d="M23.37582,19.28835c.2225-.22306.45763-.38142.64358-.60013a3.56817,3.56817,0,0,0,.90662-2.42041,2.14587,2.14587,0,0,0-.03418-.593c-.03163-.108.01879-.15208.126-.13886.02182.00269.04335.0077.065.01174.85015.15846.886.21735.76779,1.1526A4.796,4.796,0,0,1,24.784,19.22321c-.04766.0574-.09112.13-.175.1144A12.19141,12.19141,0,0,0,23.37582,19.28835Z"/><path class="cls-3" d="M27.3014,30.11668c.33762.4455.66578.93036,1.01519,1.41492.35874-.49609.76195-1.029,1.06039-1.46226a.05708.05708,0,0,1,.10405.035c-.01409.31273.0052.63376.0052.95,0,.38751-.00922.77534.004,1.16239.00622.18142-.08213.18472-.21976.18951-.15112.00527-.21446-.02639-.20739-.19542a4.963,4.963,0,0,0-.05314-1.0174l-.6926.98356-.70837-.97514-.05832.019c-.00009.327-.007.65429.0031.981.00477.15461-.037.20449-.20016.207-.17279.00261-.1941-.06473-.19289-.21084.00558-.67385-.003-1.40842.00141-2.03527a.07745.07745,0,0,1,.13925-.046Z"/><path class="cls-3" d="M14.34249,31.25316a1.1686,1.1686,0,0,1,1.57762-1.10789c.06191.02141.204.01453.15448.14463-.03688.09689-.056.215-.24713.16516a.84386.84386,0,0,0-1.09175.482q-.012.0311-.02161.06305a.779.779,0,0,0,.20875.805.79556.79556,0,0,0,.83046.20494.97.97,0,0,1,.2445-.07116c.10457.00222.09679.12367.13834.19206.058.09547-.02931.11893-.088.14415a1.149,1.149,0,0,1-1.70566-1.02189Z"/><path class="cls-3" d="M21.77773,31.29181c.41624-.399.71391-.30578.96275.023a.523.523,0,0,1,.56127-.2751.37422.37422,0,0,1,.35062.38026c.00969.26655-.00169.53384.00559.80054.003.1109-.02928.1501-.14388.14862-.10976-.00141-.127-.05086-.12485-.14245.00429-.1807-.00068-.3616.0017-.54237.00256-.19444-.016-.372-.27044-.382a.369.369,0,0,0-.39252.34389v.00011l-.00071.01564c-.01488.171-.00545.34409-.00772.51622-.00118.09.03079.18918-.12729.19186-.14934.00253-.141-.07976-.13927-.18009.00319-.18076.00055-.3616.0009-.54239.00036-.17959-.03908-.33548-.25764-.34274a.3484.3484,0,0,0-.396.29314l-.00286.02562a4.13225,4.13225,0,0,0-.01179.56733c.00144.10531-.0009.181-.14376.17859-.13211-.00229-.12852-.07525-.12793-.16742.00207-.32714,0-.65433.00139-.98149.00032-.073-.02187-.15747.1045-.16087.103-.00276.13932.03479.1342.13263A.38745.38745,0,0,0,21.77773,31.29181Z"/><path class="cls-3" d="M28.5648,17.37792A5.66492,5.66492,0,0,1,29.681,19.09211c-.12927-.068-.2142-.11291-.29935-.1574-.28666-.14981-.56774-.31211-.86235-.44421-.16363-.07336-.19216-.15489-.14319-.31835C28.44931,17.92791,28.49569,17.67564,28.5648,17.37792Z"/><path class="cls-3" d="M30.119,31.92035a.37575.37575,0,0,0,.5124.14081l.007-.00407c.17609-.0972.25438.02442.301.12.06693.13732-.09613.14488-.17106.17964a.73221.73221,0,0,1-.82944-.14939.71026.71026,0,0,1,.57307-1.19961.597.597,0,0,1,.36806.163c.26717.24315.25146.33846-.07508.46951C30.58319,31.72929,30.36255,31.82079,30.119,31.92035Zm.57592-.48912c-.33393-.19264-.57986-.07467-.5985.25043Z"/><path class="cls-3" d="M21.228,31.70947a.69223.69223,0,0,1-1.3843.01492.70769.70769,0,0,1,.6893-.696.68649.68649,0,0,1,.695.67788v.0032Zm-1.11353-.00112a.42925.42925,0,0,0,.42038.43108.44228.44228,0,0,0,.42741-.4284.42854.42854,0,0,0-.41193-.41266.41676.41676,0,0,0-.43547.39717h0Z"/><path class="cls-3" d="M17.31486,32.10118a.67061.67061,0,0,1-.51971.30126.39476.39476,0,0,1-.43444-.40556c-.009-.25788-.00154-.5163-.00358-.77446-.00071-.09029-.00715-.166.12731-.164.11914.00172.14416.04912.14063.15422-.00607.18052.00439.36166-.00329.54207-.00813.19063.024.34962.24871.37942a.40037.40037,0,0,0,.42917-.35779c.01578-.17078.00653-.34388.008-.516.00083-.10065-.027-.206.14415-.20233.16.00345.12573.10478.12627.19231.002.31841.00421.63691-.0019.95522-.00137.071.05551.18-.09134.19642-.15492.0173-.13306-.08955-.1414-.18043Q17.33214,32.16069,17.31486,32.10118Z"/><path class="cls-3" d="M26.3338,32.40216a.6855.6855,0,0,1-.26766-1.32534.6469.6469,0,0,1,.7861.2602c.0792.1226.07005.18794-.07811.239-.23415.08065-.46023.18453-.69351.268-.16008.05728-.12867.12345-.0247.20294a.38834.38834,0,0,0,.45771.04c.14821-.089.22535.01472.26245.1013.0481.11222-.09363.11406-.15665.14761A.53891.53891,0,0,1,26.3338,32.40216Zm-.44653-.67745c.07725-.02318.12485-.03349.16932-.05152.14153-.05741.28281-.1157.42208-.17832.03295-.01482.09722-.01811.08007-.07452a.1746.1746,0,0,0-.0842-.08674C26.23673,31.20869,25.98974,31.36,25.88727,31.72471Z"/><path class="cls-3" d="M19.12482,31.84005c0-.11162-.00169-.22326.00045-.33484.002-.10527.01431-.192-.14646-.20483-.13114-.01045-.09185-.20238-.05437-.20647.33937-.037.16684-.28936.19557-.44732.017-.09371.0135-.16349.139-.15851.09439.00375.14523.02516.13837.13-.0056.08548.00644.17242-.00257.2573-.01478.13926.02573.21069.17973.19045.08563-.01127.16993-.01793.16892.11975-.001.13313-.07846.13519-.168.12293-.15453-.02111-.18719.05234-.1816.19146.00964.24-.00295.48088.005.721.00385.11588-.03949.14888-.14848.14716-.10382-.00164-.13193-.04562-.1271-.14181C19.12969,32.09786,19.12485,31.96883,19.12482,31.84005Z"/><path class="cls-3" d="M18.73577,32.00091a.39465.39465,0,0,1-.29838.37475.58339.58339,0,0,1-.53346-.10369c-.04876-.03662-.02054-.07524.00995-.10673.04385-.0453.06522-.13084.1586-.09295q.05936.02409.11992.04517c.09831.03418.19836.02813.24524-.07.05744-.12028-.05045-.16281-.134-.20555-.076-.0389-.15821-.06689-.231-.1108a.35066.35066,0,0,1-.16779-.37413.33273.33273,0,0,1,.24949-.2952.52184.52184,0,0,1,.46575.071.068.068,0,0,1,.01534.10894c-.036.04507-.06009.11009-.13589.09674a1.23091,1.23091,0,0,0-.1745-.03688c-.057-.00142-.12542.00291-.14454.0778a.12774.12774,0,0,0,.06774.1521c.10455.05808.21442.107.31658.16881A.34842.34842,0,0,1,18.73577,32.00091Z"/><path class="cls-3" d="M25.02762,31.0344a.63546.63546,0,0,1,.13217.02558c.08015.0312.21365.03362.18615.15842-.02517.11427-.12054.144-.24191.09507-.07708-.031-.18155-.04084-.217.06682-.03419.10378.05025.15244.12861.19253.05323.02724.10947.04857.16292.07542a.37965.37965,0,0,1-.01774.71978.59843.59843,0,0,1-.53838-.08019.0644.0644,0,0,1-.018-.10758c.04467-.04432.05911-.13385.15024-.11324a.86044.86044,0,0,1,.12039.04432c.10607.04155.22071.0412.26742-.0672.05808-.13481-.07437-.16674-.164-.211-.05362-.02649-.11057-.0468-.16242-.07623a.36438.36438,0,0,1-.20843-.42618C24.65641,31.12278,24.811,31.04735,25.02762,31.0344Z"/><path class="cls-3" d="M24.01716,31.707c0-.17185.00438-.34387-.00171-.51551-.00358-.10073.03232-.13245.13275-.13224.10008.00021.13456.03189.13331.13239q-.0066.52838.00008,1.05688c.00165.11545-.06191.1163-.14649.11845-.08855.00224-.12124-.03039-.11917-.11864C24.02015,32.068,24.01719,31.88745,24.01716,31.707Z"/><path class="cls-3" d="M24.15949,30.38791c.10455.03067.17385.08841.15948.19848a.16728.16728,0,0,1-.33325-.02053A.17841.17841,0,0,1,24.15949,30.38791Z"/></g></g></g></svg>