<?xml version="1.0" encoding="utf-8"?>
<!-- Generator: Adobe Illustrator 26.0.3, SVG Export Plug-In . SVG Version: 6.00 Build 0)  -->
<svg version="1.1" id="Layer_8" xmlns="http://www.w3.org/2000/svg" xmlns:xlink="http://www.w3.org/1999/xlink" x="0px" y="0px"
	 viewBox="0 0 26.1 43.8" style="enable-background:new 0 0 26.1 43.8;" xml:space="preserve">
<style type="text/css">
	.st0{fill:none;stroke:#CCCCCC;stroke-linecap:round;stroke-linejoin:round;}
	.st1{opacity:0.3;fill:#CCCCCC;}
</style>
<path class="st0" d="M13.1,30.6c-0.8,0.1-1.6-0.1-2.3-0.4c-0.4-0.2-0.8-0.7-0.9-1.2c-0.1-0.5-0.2-1.1-0.1-1.6v-3.9
	c0-0.8,0.2-1.6,0.7-2.3c0.5-0.6,1-1.1,1.7-1.4c0.7-0.4,1.4-0.7,2.2-1.1c0.8-0.3,1.5-0.7,2.2-1.2c0.7-0.5,1.3-1.1,1.7-1.8
	c0.5-0.9,0.7-2,0.7-3c0.1-1.6-0.4-3.1-1.5-4.2c-1.3-1.1-3-1.6-4.6-1.5c-0.9,0-1.8,0.1-2.6,0.4C9.5,7.7,8.9,8.1,8.4,8.7
	c-0.5,0.5-0.9,1.1-1.1,1.8c-0.2,0.6-0.5,1.2-0.9,1.7c-0.3,0.4-0.8,0.6-1.3,0.7c-0.7,0.1-1.4,0-2.1-0.3c-0.7-0.3-1.3-0.6-1.9-1
	c-0.4-0.3-0.6-0.7-0.7-1.2c0-0.6,0.1-1.3,0.3-1.9c0.2-0.6,0.4-1.2,0.7-1.8C1.9,6,2.4,5.3,3,4.6c0.7-0.8,1.5-1.5,2.3-2
	c1-0.7,2.1-1.2,3.3-1.5c1.4-0.4,2.8-0.6,4.2-0.6C15.1,0.4,17.4,1,19.5,2c1.9,1,3.4,2.4,4.5,4.2c1.1,1.9,1.6,4.1,1.6,6.3
	c0,1.3-0.2,2.6-0.6,3.9c-0.4,1.1-0.9,2.1-1.6,3.1c-0.7,0.9-1.4,1.6-2.3,2.3c-0.8,0.6-1.6,1.1-2.5,1.6c-0.6,0.3-1.3,0.6-2,0.8l0,0
	v3.4c0,0.5-0.1,1-0.2,1.5c-0.1,0.5-0.5,0.9-0.9,1.1C14.7,30.5,13.9,30.6,13.1,30.6z M13.1,43.3c-1.6,0-2.7-0.3-3.2-1
	c-0.6-0.9-0.9-2-0.8-3.1c0-0.6,0.1-1.2,0.2-1.8c0.1-0.6,0.5-1.2,1-1.6c0.9-0.5,1.9-0.7,2.9-0.6c1.7,0,2.8,0.3,3.3,1
	c0.6,0.9,0.8,2,0.7,3.1c0,0.6,0,1.3-0.1,1.9c-0.1,0.6-0.5,1.2-1,1.5C15.1,43.1,14.1,43.4,13.1,43.3z"/>
<path class="st1" d="M13.1,30.6c-0.8,0.1-1.6-0.1-2.3-0.4c-0.4-0.2-0.8-0.7-0.9-1.2c-0.1-0.5-0.2-1.1-0.1-1.6v-3.9
	c0-0.8,0.2-1.6,0.7-2.3c0.5-0.6,1-1.1,1.7-1.4c0.7-0.4,1.4-0.7,2.2-1.1c0.8-0.3,1.5-0.7,2.2-1.2c0.7-0.5,1.3-1.1,1.7-1.8
	c0.5-0.9,0.7-2,0.7-3c0.1-1.6-0.4-3.1-1.5-4.2c-1.3-1.1-3-1.6-4.6-1.5c-0.9,0-1.8,0.1-2.6,0.4C9.5,7.7,8.9,8.1,8.4,8.7
	c-0.5,0.5-0.9,1.1-1.1,1.8c-0.2,0.6-0.5,1.2-0.9,1.7c-0.3,0.4-0.8,0.6-1.3,0.7c-0.7,0.1-1.4,0-2.1-0.3c-0.7-0.3-1.3-0.6-1.9-1
	c-0.4-0.3-0.6-0.7-0.7-1.2c0-0.6,0.1-1.3,0.3-1.9c0.2-0.6,0.4-1.2,0.7-1.8C1.9,6,2.4,5.3,3,4.6c0.7-0.8,1.5-1.5,2.3-2
	c1-0.7,2.1-1.2,3.3-1.5c1.4-0.4,2.8-0.6,4.2-0.6C15.1,0.4,17.4,1,19.5,2c1.9,1,3.4,2.4,4.5,4.2c1.1,1.9,1.6,4.1,1.6,6.3
	c0,1.3-0.2,2.6-0.6,3.9c-0.4,1.1-0.9,2.1-1.6,3.1c-0.7,0.9-1.4,1.6-2.3,2.3c-0.8,0.6-1.6,1.1-2.5,1.6c-0.6,0.3-1.3,0.6-2,0.8l0,0
	v3.4c0,0.5-0.1,1-0.2,1.5c-0.1,0.5-0.5,0.9-0.9,1.1C14.7,30.5,13.9,30.6,13.1,30.6z M13.1,43.3c-1.6,0-2.7-0.3-3.2-1
	c-0.6-0.9-0.9-2-0.8-3.1c0-0.6,0.1-1.2,0.2-1.8c0.1-0.6,0.5-1.2,1-1.6c0.9-0.5,1.9-0.7,2.9-0.6c1.7,0,2.8,0.3,3.3,1
	c0.6,0.9,0.8,2,0.7,3.1c0,0.6,0,1.3-0.1,1.9c-0.1,0.6-0.5,1.2-1,1.5C15.1,43.1,14.1,43.4,13.1,43.3z"/>
</svg>
