<svg xmlns="http://www.w3.org/2000/svg" viewBox="0 0 180.66638 182.97976"><defs><style>.cls-1{fill:#fff;}.cls-2{fill:#bfac99;}</style></defs><g id="Layer_2" data-name="Layer 2"><g id="Layer_1-2" data-name="Layer 1"><path class="cls-1" d="M71.15925,148.96661c-19.53594-.16331-35.91516-7.55436-48.84179-22.13667A60.7522,60.7522,0,0,1,7.09557,92.96762Q3.17349,59.3252,27.83805,36.08973c4.83905-4.5641,10.60478-7.83474,16.391-11.03847,10.37605-5.74507,20.73-11.53021,31.125-17.24073,2.08789-1.147,4.335-2.00023,6.47563-3.05608,1.50908-.74435,2.07272-.26717,2.44464,1.31267a9.3407,9.3407,0,0,1-4.1604,10.32529c-6.2268,3.69355-12.63957,7.07186-18.90767,10.6977-7.98363,4.6182-16.53214,8.31921-23.82092,14.06955-11.14629,8.79364-17.78649,20.29268-20.256,34.30408a52.347,52.347,0,0,0,4.717,32.70779c7.68515,15.77084,20.3794,25.607,37.40811,29.62109,13.30749,3.1369,26.01531,1.10771,38.08567-5.28007,4.72147-2.49868,9.80226-1.6245,12.861,1.91356.95322,1.10259.99959,1.79215-.38249,2.5945-8.63368,5.01227-17.44314,9.53362-27.47022,11.13382A65.41771,65.41771,0,0,1,71.15925,148.96661Z"/><path class="cls-1" d="M104.38108,8.17079c-.2143,12.02691-5.67495,20.88464-16.17857,26.711C76.64712,41.2915,65.02233,47.58077,53.565,54.16162c-18.1836,10.44431-22.81818,34.96722-9.90194,51.55484a34.62059,34.62059,0,0,0,43.12773,9.71713c5.96044-3.05126,12.07308-4.97617,18.78274-4.35575,9.48573.8771,16.752,5.5576,22.10251,13.34708.71982,1.048.62393,1.82395-.60011,2.51386-1.93914,1.093-3.81171,2.31-5.66864,3.54071-.94192.62424-1.558.49378-2.134-.46444-5.34508-8.89208-17.87485-11.06316-27.40566-6.01256-26.76,14.18074-59.13739-1.95471-64.65608-31.26644-3.76389-19.99142,5.78166-39.03756,23.897-48.70335,11.2345-5.99437,22.32547-12.26457,33.38056-18.58645,7.99519-4.57207,11.52956-12.97787,9.47491-21.95767-.3835-1.67608-.30645-2.53733,1.68536-2.6495,1.891-.10649,3.76246-.53634,5.647-.79048,1.45542-.19626,2.29718.15576,2.59159,1.90982A56.326,56.326,0,0,1,104.38108,8.17079Z"/><path class="cls-2" d="M73.88236,101.51653c4.09233-.08489,8.52614-2.54943,12.43033-6.16839,2.7002-2.50295,4.029-2.527,6.67491-.00824.69263.65936,1.37723,1.32718,2.06334,1.99336,2.58652,2.51141,2.61137,3.021.28022,5.65924-8.495,9.6139-23.16524,13.366-34.15784,8.73627C50.42207,107.2007,43.2266,95.2473,44.04573,83.2757A28.82777,28.82777,0,0,1,65.564,57.52531c3.69518-1.01721,7.45-1.72187,11.31849-1.06472,2.55964.43482,3.07922,1.16353,2.62768,3.67667-.11259.62657-.15616,1.26546-.266,1.89263C78.4807,66.38805,77.588,67.19,73.181,67.50154c-11.699.827-19.69458,11.19183-16.80749,21.78794C58.30714,96.38608,65.0465,101.49887,73.88236,101.51653Z"/><path class="cls-1" d="M162.59134,91.5732a64.78923,64.78923,0,0,0-26.69027-23.261,61.45874,61.45874,0,0,0-37.85675-5.21994,14.39129,14.39129,0,0,1-2.38213.14974c-2.96768.02958-4.99226-1.53244-5.2823-4.04585a5.05741,5.05741,0,0,1,4.038-5.88005,61.04621,61.04621,0,0,1,12.25732-1.55537c19.58324-.469,36.57879,6.13526,51.3363,18.90293a58.34737,58.34737,0,0,1,8.39356,9.39362,2.28111,2.28111,0,0,1,.52462,2.60239C165.528,85.49964,164.15544,88.354,162.59134,91.5732Z"/><path class="cls-1" d="M171.22622,63.9928c-.204,1.224.64438,3.08035-.38066,3.55558-1.10145.51064-1.90891-1.294-2.83171-2.08523A100.00522,100.00522,0,0,0,130.08824,45.0176c-1.52589-.43809-3.0356-.94653-4.5809-1.29921-1.51795-.34644-1.74227-.86593-.8917-2.268A65.1426,65.1426,0,0,0,133.11535,20.811,48.57981,48.57981,0,0,0,134.405,8.52633c-.09482-1.87282.62457-2.08641,2.07895-1.221,1.23061.73225,2.50305,1.39624,3.71538,2.15681,4.656,2.921,4.6362,2.92855,3.66974,8.32331a76.6779,76.6779,0,0,1-5.06461,17.82879c-.611,1.37283-.143,1.7792,1.04372,2.193A110.10057,110.10057,0,0,1,167.822,52.57043c1.99076,1.42783,3.156,2.9684,2.99033,5.48641C170.682,60.03848,171.539,61.97684,171.22622,63.9928Z"/><path class="cls-1" d="M105.20509,71.78315a70.01246,70.01246,0,0,1,44.54666,16.95926c2.68673,2.27241,5.08991,4.812,7.625,7.22756,1.00066.95346,1.14367,1.714.12941,2.797-1.46457,1.56391-2.82514,3.23409-4.1311,4.935-1.04344,1.35895-1.90572,1.39777-3.02148.07527A62.2886,62.2886,0,0,0,128.9408,87.73174a59.96135,59.96135,0,0,0-27.96813-5.8534,5.07734,5.07734,0,0,1-4.83286-2.90473,4.6505,4.6505,0,0,1,.32937-4.98661,4.242,4.242,0,0,1,3.71413-2.20141C101.85717,71.77452,103.53115,71.78315,105.20509,71.78315Z"/><path class="cls-1" d="M101.44078,96.74333a5.16981,5.16981,0,0,1,4.88326-4.87986c4.13863-.07693,8.0085,1.282,11.81563,2.58028a72.49925,72.49925,0,0,1,25.845,15.38418c1.27186,1.16705,1.532,1.88983-.02218,3.04388a53.696,53.696,0,0,0-5.00121,4.41944c-.84094.8049-1.40084.95524-2.3575.07152a60.42185,60.42185,0,0,0-30.65232-15.45819A5.46866,5.46866,0,0,1,101.44078,96.74333Z"/><path class="cls-1" d="M97.587,41.06786c2.40358-2.40968,4.94362-4.12035,6.95243-6.48308,6.44171-7.57666,9.90668-16.17375,9.79412-26.14725-.02411-2.13615.24927-4.294-.36933-6.40616-.34159-1.16638.20305-1.64292,1.3616-1.50008.23572.02906.46839.08318.70227.12677,9.184,1.71188,9.57162,2.34808,8.2943,12.45135a51.81092,51.81092,0,0,1-11.52258,27.25465c-.51486.62017-.98437,1.40441-1.89,1.2359C106.61706,40.80116,102.25785,41.43139,97.587,41.06786Z"/><path class="cls-2" d="M139.99429,158.04463c3.64724,4.81274,7.19234,10.05055,10.967,15.28517,3.87532-5.35923,8.2312-11.11556,11.45515-15.79656a.61663.61663,0,0,1,1.12407.37774c-.15219,3.37841.0562,6.84648.05615,10.26274-.00005,4.1862-.09964,8.37583.04364,12.55713.06717,1.95985-.88722,1.99541-2.37406,2.04724-1.63248.05692-2.3167-.28512-2.24036-2.11113a53.61592,53.61592,0,0,0-.57408-10.99084c-2.41854,3.43457-4.83708,6.86916-7.482,10.62525l-7.65246-10.53428-.63.20537c-.00093,3.533-.07549,7.06823.03347,10.59781.05156,1.67021-.39954,2.20913-2.16229,2.23584-1.86657.02829-2.09676-.69917-2.08371-2.27759.06027-7.27947-.0327-15.21491.01522-21.98683A.83665.83665,0,0,1,139.99429,158.04463Z"/><path class="cls-2" d="M.00154,170.32189a12.62418,12.62418,0,0,1,17.04275-11.96833c.66878.23131,2.20363.157,1.66872,1.56238-.3984,1.04674-.60436,2.32285-2.66964,1.78418-5.89431-1.53738-10.55915.922-12.02743,5.88766A8.41512,8.41512,0,0,0,6.271,176.28441c2.48218,2.57068,5.5803,3.12,8.9713,2.21393a10.47641,10.47641,0,0,1,2.64134-.76879c1.12961.024,1.04559,1.336,1.49442,2.07483.62654,1.03136-.31664,1.28475-.95033,1.55727C9.0368,185.40005-.13657,179.78934.00154,170.32189Z"/><path class="cls-2" d="M80.32307,170.73944c4.49659-4.30982,7.71231-3.30337,10.40044.249,1.41623-2.25123,3.37167-3.42064,6.06325-2.97191,2.32906.38828,3.70168,1.74365,3.78769,4.10786.10475,2.87955-.01823,5.767.06035,8.64813.03267,1.198-.3162,1.62146-1.55419,1.60553-1.18581-.01523-1.37234-.54941-1.34887-1.53885.04631-1.95208-.00738-3.9063.01837-5.85914.02769-2.10052-.173-4.01849-2.92151-4.12685a3.98682,3.98682,0,0,0-4.24794,3.885c-.16085,1.84723-.05882,3.717-.08334,5.57661-.01281.97175.33258,2.0436-1.37514,2.07258-1.61335.02735-1.52352-.86167-1.50447-1.94555.03431-1.95257.00588-3.9062.0097-5.85938.00378-1.94009-.42214-3.6241-2.78324-3.70241-2.35126-.078-4.00988,1.05686-4.30866,3.44351a44.628,44.628,0,0,0-.12739,6.12874c.01555,1.13767-.00974,1.9559-1.553,1.92916-1.42714-.02475-1.38841-.81283-1.38208-1.80846.02246-3.53419-.00019-7.06865.015-10.60291.0034-.789-.23628-1.70112,1.129-1.73779,1.11286-.0299,1.505.37581,1.44974,1.43271A4.184,4.184,0,0,0,80.32307,170.73944Z"/><path class="cls-1" d="M153.64262,20.43012a61.19993,61.19993,0,0,1,12.05856,18.518c-1.39651-.7345-2.314-1.21968-3.23384-1.70036-3.09679-1.61833-6.13323-3.37165-9.31586-4.79863-1.76763-.79254-2.07583-1.6733-1.54686-3.43908C152.395,26.37157,152.896,23.6463,153.64262,20.43012Z"/><path class="cls-2" d="M170.4319,177.52945c1.69368,2.23834,3.70682,2.52809,5.61067,1.47712,1.90228-1.05007,2.74806.26382,3.2515,1.29673.723,1.48346-1.03848,1.56519-1.848,1.94071a7.91011,7.91011,0,0,1-8.96026-1.61387A7.67273,7.67273,0,0,1,174.6766,167.671a6.45,6.45,0,0,1,3.97611,1.76132c2.88618,2.62671,2.71646,3.65635-.81114,5.07207C175.44694,175.46536,173.06339,176.4539,170.4319,177.52945Zm6.22156-5.28392c-3.60734-2.08106-6.26408-.80669-6.46543,2.70532C172.2359,174.094,174.257,173.24829,176.65346,172.24553Z"/><path class="cls-2" d="M74.38471,175.25131a7.47805,7.47805,0,0,1-14.95444.16112,7.645,7.645,0,0,1,7.44639-7.51921A7.41607,7.41607,0,0,1,74.38471,175.25131Zm-12.02918-.0117a4.637,4.637,0,0,0,4.54124,4.6569,4.77767,4.77767,0,0,0,4.61721-4.6279,4.62935,4.62935,0,0,0-4.45-4.45791A4.50213,4.50213,0,0,0,62.35553,175.23961Z"/><path class="cls-2" d="M32.11143,179.48293c-1.678,1.93025-3.26039,3.2925-5.61429,3.25445-2.83713-.04586-4.59574-1.578-4.69313-4.38122-.09679-2.78584-.01666-5.57749-.0387-8.36641-.00771-.9753-.07729-1.79272,1.37533-1.7718,1.287.01854,1.5573.53064,1.51915,1.66609-.06554,1.95015.04744,3.90692-.03558,5.85574-.08774,2.05952.25965,3.77693,2.68683,4.0988a4.32487,4.32487,0,0,0,4.63619-3.86512c.17051-1.84484.07061-3.71491.08591-5.57381.00895-1.08726-.29207-2.22563,1.55729-2.18574,1.72855.03728,1.35822,1.13193,1.364,2.07748.02117,3.43976.04556,6.88046-.02051,10.3191-.01474.767.59965,1.94472-.98671,2.12183-1.67358.18689-1.43746-.96739-1.52757-1.94911A13.36159,13.36159,0,0,0,32.11143,179.48293Z"/><path class="cls-2" d="M129.54156,182.73428A7.40533,7.40533,0,0,1,126.65,168.41689a6.9884,6.9884,0,0,1,8.49218,2.81093c.85551,1.3244.75668,2.0303-.84386,2.58162-2.52948.8713-4.97182,1.99343-7.49189,2.89525-1.7293.61885-1.39,1.33367-.26677,2.19236a4.19529,4.19529,0,0,0,4.94448.43161c1.60112-.96149,2.43443.159,2.83528,1.09429.51959,1.21232-1.01162,1.23219-1.69231,1.59459A5.822,5.822,0,0,1,129.54156,182.73428Zm-4.82383-7.31838c.83453-.25034,1.34871-.36177,1.82909-.55658,1.529-.62017,3.05514-1.24985,4.55968-1.92635.356-.16008,1.05025-.19555.865-.80494a1.886,1.886,0,0,0-.90959-.93706C128.49285,169.84148,125.82466,171.47622,124.71773,175.4159Z"/><path class="cls-2" d="M51.66415,176.66192c-.00031-1.20576-.01823-2.41185.00489-3.61717.02181-1.13728.15458-2.07429-1.58217-2.21276-1.41676-.11294-.99229-2.1863-.58742-2.23048,3.66621-.39993,1.80235-3.12589,2.1127-4.83234.18409-1.01229.14587-1.76619,1.50157-1.71237,1.0196.0405,1.56883.27173,1.49471,1.40425-.06044.92349.06961,1.8627-.02774,2.77976-.1597,1.50436.278,2.276,1.94166,2.05722.925-.12165,1.83562-.19352,1.82475,1.29374-.01049,1.43826-.84756,1.46037-1.81534,1.32807-1.66933-.22822-2.02209.56538-1.96174,2.06825.10409,2.59281-.03187,5.19488.05436,7.789.04161,1.2518-.42663,1.60825-1.60408,1.58968-1.12151-.0177-1.42512-.49276-1.373-1.53195C51.71682,179.44706,51.66446,178.05317,51.66415,176.66192Z"/><path class="cls-2" d="M47.46137,178.39964a4.26354,4.26354,0,0,1-3.22341,4.04845,6.30248,6.30248,0,0,1-5.76287-1.12015c-.52672-.39568-.22182-.81288.10751-1.15308.47366-.48928.70453-1.41336,1.71336-1.004q.6412.26018,1.29542.488c1.062.36917,2.1429.30388,2.64929-.75637.62056-1.2993-.545-1.75893-1.44715-2.22048-.82134-.4202-1.70909-.72264-2.4952-1.197a3.78791,3.78791,0,0,1-1.81259-4.04159,3.59446,3.59446,0,0,1,2.69519-3.189,5.63735,5.63735,0,0,1,5.03141.76642.73509.73509,0,0,1,.16566,1.1769c-.38916.48684-.64907,1.18926-1.468,1.04505a13.29471,13.29471,0,0,0-1.88511-.3984c-.61565-.01537-1.35483.03147-1.56135.84052a1.37981,1.37981,0,0,0,.73178,1.64306c1.12938.62738,2.31632,1.15578,3.41989,1.82363A3.764,3.764,0,0,1,47.46137,178.39964Z"/><path class="cls-2" d="M115.43106,167.95861a6.86972,6.86972,0,0,1,1.42782.27638c.86583.337,2.308.36318,2.011,1.71136-.272,1.23445-1.30222,1.55523-2.61337,1.02709-.83271-.33541-1.96122-.44122-2.34441.72181-.36939,1.12114.54285,1.6468,1.38931,2.07983.57511.29423,1.18264.52472,1.76007.81478,1.68253.84524,2.87814,2.00375,2.69629,4.09914a3.96829,3.96829,0,0,1-2.888,3.67654,6.46475,6.46475,0,0,1-5.816-.86627.69574.69574,0,0,1-.19471-1.1622c.48263-.47878.63862-1.44593,1.62307-1.22338a9.27477,9.27477,0,0,1,1.30059.47886c1.14583.44884,2.38425.44509,2.88882-.726.6274-1.45628-.80346-1.80125-1.77157-2.27967-.57923-.28626-1.19443-.50557-1.7546-.82347-1.79-1.01588-2.74531-2.50137-2.25173-4.60388C111.42093,168.91334,113.09055,168.099,115.43106,167.95861Z"/><path class="cls-2" d="M104.51525,175.22456c-.00038-1.85656.04735-3.71482-.01852-5.569-.03865-1.08823.34917-1.4309,1.4341-1.42862,1.08115.00228,1.45366.34455,1.44013,1.43017q-.07114,5.708.00089,11.41733c.01782,1.24724-.66883,1.25641-1.58248,1.27956-.95663.02423-1.30972-.3283-1.28742-1.28156C104.54756,179.1241,104.51563,177.174,104.51525,175.22456Z"/><path class="cls-2" d="M106.05311,160.97472c1.12949.33131,1.8781.95508,1.72292,2.14417a1.80715,1.80715,0,0,1-3.60011-.22185A1.92734,1.92734,0,0,1,106.05311,160.97472Z"/></g></g></svg>