<?xml version="1.0" encoding="utf-8"?>
<!-- Generator: Adobe Illustrator 26.0.3, SVG Export Plug-In . SVG Version: 6.00 Build 0)  -->
<svg version="1.1" id="Layer_1" xmlns="http://www.w3.org/2000/svg" xmlns:xlink="http://www.w3.org/1999/xlink" x="0px" y="0px"
	 viewBox="0 0 24 24" style="enable-background:new 0 0 24 24;" xml:space="preserve">
<style type="text/css">
	.st0{fill:none;}
	.st1{fill:#BDD8C0;}
</style>
<path class="st0" d="M0,0h24v24H0V0z"/>
<path class="st1" d="M16.1,2.7H7.9c-2.3,0-4.1,1.8-4.1,4.1s1.8,4.1,4.1,4.1h8.3c2.3,0,4.1-1.8,4.1-4.1S18.4,2.7,16.1,2.7z M7.9,9.3
	c-1.4,0-2.5-1.1-2.5-2.5s1.1-2.5,2.5-2.5s2.5,1.1,2.5,2.5S9.3,9.3,7.9,9.3z"/>
<path class="st1" d="M16.1,13H7.9c-2.3,0-4.1,1.8-4.1,4.1s1.8,4.1,4.1,4.1h8.3c2.3,0,4.1-1.8,4.1-4.1S18.4,13,16.1,13z M16.1,19.6
	c-1.4,0-2.5-1.1-2.5-2.5c0-1.4,1.1-2.5,2.5-2.5c1.4,0,2.5,1.1,2.5,2.5C18.6,18.5,17.5,19.6,16.1,19.6z"/>
</svg>
