<?xml version="1.0" encoding="utf-8"?>
<!-- Generator: Adobe Illustrator 26.0.3, SVG Export Plug-In . SVG Version: 6.00 Build 0)  -->
<svg version="1.1" id="Layer_1" xmlns="http://www.w3.org/2000/svg" xmlns:xlink="http://www.w3.org/1999/xlink" x="0px" y="0px"
	 viewBox="0 0 50 50" style="enable-background:new 0 0 50 50;" xml:space="preserve">
<style type="text/css">
	.st0{fill:#FFFFFF;}
</style>
<path class="st0" d="M27,44V29h-4v-5h4v-3c0-4,2-7,6-7c2.9,0,4,1,4,1v4h-2c-2.1,0-3,0.5-3,2v3h5l-1,5h-4v15v2h9c2.8,0,5-2.2,5-5V9
	c0-2.8-2.2-5-5-5H9C6.2,4,4,6.2,4,9v32c0,2.8,2.2,5,5,5h18V44z"/>
</svg>
