<?xml version="1.0" encoding="utf-8"?>
<!-- Generator: Adobe Illustrator 26.0.3, SVG Export Plug-In . SVG Version: 6.00 Build 0)  -->
<svg version="1.1" id="Layer_1" xmlns="http://www.w3.org/2000/svg" xmlns:xlink="http://www.w3.org/1999/xlink" x="0px" y="0px"
	 viewBox="0 0 24 24" style="enable-background:new 0 0 24 24;" xml:space="preserve">
<style type="text/css">
	.st0{fill:none;}
	.st1{fill:#BDD8C0;}
</style>
<path class="st0" d="M0,0h24v24H0V0z"/>
<path class="st1" d="M9.8,20.1v-5.5h4.4v5.5c0,0.6,0.5,1.1,1.1,1.1h3.3c0.6,0,1.1-0.5,1.1-1.1v-7.8h1.9c0.5,0,0.8-0.6,0.4-1L12.7,3
	c-0.4-0.4-1.1-0.4-1.5,0L2,11.4c-0.4,0.3-0.1,1,0.4,1h1.9v7.8c0,0.6,0.5,1.1,1.1,1.1h3.3C9.3,21.2,9.8,20.7,9.8,20.1z"/>
</svg>
