<svg xmlns="http://www.w3.org/2000/svg" viewBox="0 0 1826.38995 24.92999"><defs><style>.cls-1{fill:#fff;}.cls-2{fill:#ebeaeb;}</style></defs><g id="Layer_2" data-name="Layer 2"><g id="Layer_1-2" data-name="Layer 1"><path class="cls-1" d="M0,12.31875H216.18"/><path class="cls-2" d="M672.71,12.34a12.84809,12.84809,0,0,0,.25,2.5H240.6a12.625,12.625,0,0,0,0-5H672.96A12.84794,12.84794,0,0,0,672.71,12.34Z"/><path class="cls-2" d="M1129.25,12.6a11.90213,11.90213,0,0,0,.21,2.24H697.13a12.625,12.625,0,0,0,0-5h432.44007A11.97549,11.97549,0,0,0,1129.25,12.6Z"/><path class="cls-2" d="M1585.79,12.34a12.84267,12.84267,0,0,0,.25,2.5H1153.71a12.05988,12.05988,0,0,0-.11-5H1586.04A12.84251,12.84251,0,0,0,1585.79,12.34Z"/><path class="cls-2" d="M240.6,9.84a12.34,12.34,0,1,0,0,5,12.625,12.625,0,0,0,0-5Zm-4.75,2.5a6.93014,6.93014,0,0,1-.45,2.5,7.34,7.34,0,1,1,0-5A6.92987,6.92987,0,0,1,235.85,12.34Z"/><path class="cls-2" d="M1598.12,0a12.36253,12.36253,0,0,0-12.08,9.84,12.625,12.625,0,0,0,0,5A12.33812,12.33812,0,1,0,1598.12,0Zm0,19.68a7.31,7.31,0,0,1-6.88-4.84,7.17019,7.17019,0,0,1,0-5,7.33128,7.33128,0,1,1,6.88,9.84Z"/><path class="cls-2" d="M697.13,9.84a12.34112,12.34112,0,0,0-24.17,0,12.625,12.625,0,0,0,0,5,12.34113,12.34113,0,0,0,24.17,0,12.625,12.625,0,0,0,0-5Zm-5.2,5a7.31706,7.31706,0,0,1-13.77,0,7.1693,7.1693,0,0,1,0-5,7.317,7.317,0,0,1,13.77,0,7.1693,7.1693,0,0,1,0,5Z"/><path class="cls-2" d="M1153.6,9.84a12.3244,12.3244,0,0,0-24.02991,0,12.05725,12.05725,0,0,0-.11011,5,12.33022,12.33022,0,0,0,24.25,0,12.05988,12.05988,0,0,0-.11-5Zm-5.02991,5a7.33783,7.33783,0,0,1-13.97009,0,7.332,7.332,0,0,1,.19006-5,7.33057,7.33057,0,0,1,13.59,0,7.334,7.334,0,0,1,.19007,5Z"/><path class="cls-1" d="M1610.21,12.31878h216.18"/></g></g></svg>