<?xml version="1.0" encoding="utf-8"?>
<!-- Generator: Adobe Illustrator 26.0.3, SVG Export Plug-In . SVG Version: 6.00 Build 0)  -->
<svg version="1.1" xmlns="http://www.w3.org/2000/svg" xmlns:xlink="http://www.w3.org/1999/xlink" x="0px" y="0px"
	 viewBox="0 0 64 64" style="enable-background:new 0 0 64 64;" xml:space="preserve">
<style type="text/css">
	.st0{fill:#FFFFFF;}
</style>
<g id="Layer_1">
	<path class="st0" d="M20.8,5.2c-8.6,0-15.7,7-15.7,15.7v22.4c0,8.6,7,15.7,15.7,15.7h22.4c8.6,0,15.7-7,15.7-15.7V20.8
		c0-8.6-7-15.7-15.7-15.7H20.8z M48.1,13.7c1.2,0,2.1,1,2.1,2.1s-1,2.1-2.1,2.1c-1.2,0-2.1-1-2.1-2.1S46.9,13.7,48.1,13.7z M32,18
		c7.7,0,14,6.3,14,14s-6.3,14-14,14c-7.7,0-14-6.3-14-14S24.3,18,32,18z M32,22.3c-5.3,0-9.7,4.3-9.7,9.7s4.3,9.7,9.7,9.7
		s9.7-4.3,9.7-9.7S37.3,22.3,32,22.3z"/>
</g>
<g id="Layer_2">
</g>
</svg>
