<?xml version="1.0" encoding="utf-8"?>
<!-- Generator: Adobe Illustrator 26.0.3, SVG Export Plug-In . SVG Version: 6.00 Build 0)  -->
<svg version="1.1" id="Layer_1" xmlns="http://www.w3.org/2000/svg" xmlns:xlink="http://www.w3.org/1999/xlink" x="0px" y="0px"
	 viewBox="0 0 64 64" style="enable-background:new 0 0 64 64;" xml:space="preserve">
<style type="text/css">
	.st0{fill:#FFFFFF;}
</style>
<path class="st0" d="M20.7,4.8c-8.8,0-15.9,7.1-15.9,15.9v22.7c0,8.8,7.1,15.9,15.9,15.9h22.7c8.8,0,15.9-7.1,15.9-15.9V20.7
	c0-8.8-7.1-15.9-15.9-15.9H20.7z M48.3,13.5c1.2,0,2.2,1,2.2,2.2s-1,2.2-2.2,2.2s-2.2-1-2.2-2.2S47.1,13.5,48.3,13.5z M32,17.8
	c7.8,0,14.2,6.3,14.2,14.2S39.8,46.2,32,46.2c-7.8,0-14.2-6.3-14.2-14.2S24.2,17.8,32,17.8z M32,22.2c-5.4,0-9.8,4.4-9.8,9.8
	s4.4,9.8,9.8,9.8s9.8-4.4,9.8-9.8S37.4,22.2,32,22.2z"/>
</svg>
