<?xml version="1.0" encoding="utf-8"?>
<!-- Generator: Adobe Illustrator 26.0.3, SVG Export Plug-In . SVG Version: 6.00 Build 0)  -->
<svg version="1.1" id="Layer_1" xmlns="http://www.w3.org/2000/svg" xmlns:xlink="http://www.w3.org/1999/xlink" x="0px" y="0px"
	 viewBox="0 0 24 24" style="enable-background:new 0 0 24 24;" xml:space="preserve">
<style type="text/css">
	.st0{fill:none;}
	.st1{opacity:0.5;fill:#8C746D;}
</style>
<path class="st0" d="M0.7,0.5h24v24h-24V0.5z"/>
<path class="st1" d="M12,4.6c-4.1,0-7.4,3.3-7.4,7.4s3.3,7.4,7.4,7.4s7.4-3.3,7.4-7.4S16.1,4.6,12,4.6z M6.1,12
	c0-3.3,2.6-5.9,5.9-5.9c1.4,0,2.6,0.5,3.6,1.2l-8.3,8.3C6.6,14.6,6.1,13.4,6.1,12z M12,17.9c-1.4,0-2.6-0.5-3.6-1.2l8.3-8.3
	c0.8,1,1.2,2.3,1.2,3.6C17.9,15.3,15.3,17.9,12,17.9z"/>
</svg>
