<?xml version="1.0" encoding="utf-8"?>
<!-- Generator: Adobe Illustrator 26.0.3, SVG Export Plug-In . SVG Version: 6.00 Build 0)  -->
<svg version="1.1" id="Layer_1" xmlns="http://www.w3.org/2000/svg" xmlns:xlink="http://www.w3.org/1999/xlink" x="0px" y="0px"
	 viewBox="0 0 24 24" style="enable-background:new 0 0 24 24;" xml:space="preserve">
<style type="text/css">
	.st0{fill:none;}
	.st1{fill:#BDD8C0;}
</style>
<rect class="st0" width="24" height="24"/>
<path class="st1" d="M12,20H2v-2h5.8l0,0C7,15.2,4.8,13,2,12.3C2.6,12.1,3.3,12,4,12C8.4,12,12,15.6,12,20z M22,12.3
	c-0.6-0.2-1.3-0.3-2-0.3c-2.9,0-5.5,1.6-6.9,3.9c0.3,0.7,0.5,1.4,0.7,2.1c0.1,0.6,0.2,1.3,0.2,2h2h6v-2h-5.8
	C17,15.2,19.2,13,22,12.3z M15.6,11c0.8-2.1,2.2-3.8,4.1-5C15.4,6.2,12,9.7,12,14c0,0,0,0,0,0C12.9,12.8,14.2,11.7,15.6,11z
	 M11.4,8.9c-0.8-2.2-2.5-4-4.7-4.9C8.1,5.9,9,8.2,9,10.7c0,0.2,0,0.4,0,0.6c0.4,0.2,0.8,0.5,1.2,0.8C10.4,11,10.8,9.9,11.4,8.9z"/>
</svg>
