<?xml version="1.0" encoding="utf-8"?>
<!-- Generator: Adobe Illustrator 26.0.3, SVG Export Plug-In . SVG Version: 6.00 Build 0)  -->
<svg version="1.1" id="Layer_1" xmlns="http://www.w3.org/2000/svg" xmlns:xlink="http://www.w3.org/1999/xlink" x="0px" y="0px"
	 viewBox="0 0 24 24" style="enable-background:new 0 0 24 24;" xml:space="preserve">
<style type="text/css">
	.st0{fill:none;}
	.st1{fill:#BDD8C0;}
</style>
<rect class="st0" width="24" height="24"/>
<path class="st1" d="M5.8,7.2l1.4-2.4l1-1.7c0.4-0.7,1.3-0.7,1.7,0l1.5,2.5l-1.2,2.1l-1,1.6L5.8,7.2z M21.7,13l-1.6-2.7l-3.5,2
	l2.2,3.7H20c0.8,0,1.5-0.4,1.8-1.1c0.1-0.3,0.2-0.6,0.2-0.9C22,13.6,21.9,13.3,21.7,13z M16,21h1.5c0.8,0,1.5-0.4,1.8-1.1l1.4-2.9
	H16v-2l-4,4l4,4V21z M10,17H5.7l-0.8,1.4c-0.3,0.5-0.3,1.1-0.1,1.6l0,0C5.1,20.6,5.7,21,6.3,21H10V17z M6.1,14.4l1.7,1L6.5,9.9
	L1,11.3l1.7,1L2.3,13c-0.4,0.6-0.4,1.3-0.1,1.9l1.6,3.3L6.1,14.4z M17,5.1L15.7,3c-0.4-0.6-1-1-1.7-1h-3.5l3.1,5.2l-1.7,1l5.5,1.4
	l1.4-5.5L17,5.1z"/>
</svg>
