<?xml version="1.0" encoding="utf-8"?>
<!-- Generator: Adobe Illustrator 26.0.3, SVG Export Plug-In . SVG Version: 6.00 Build 0)  -->
<svg version="1.1" id="Layer_1" xmlns="http://www.w3.org/2000/svg" xmlns:xlink="http://www.w3.org/1999/xlink" x="0px" y="0px"
	 viewBox="0 0 24 24" style="enable-background:new 0 0 24 24;" xml:space="preserve">
<style type="text/css">
	.st0{fill:none;}
	.st1{fill:#BDD8C0;}
</style>
<path class="st0" d="M0,0h24v24H0V0z"/>
<path class="st1" d="M20,8h-3V4H3C1.9,4,1,4.9,1,6v11h2c0,1.7,1.3,3,3,3s3-1.3,3-3h6c0,1.7,1.3,3,3,3s3-1.3,3-3h2v-5L20,8z M6,18.5
	c-0.8,0-1.5-0.7-1.5-1.5s0.7-1.5,1.5-1.5s1.5,0.7,1.5,1.5S6.8,18.5,6,18.5z M19.5,9.5l2,2.5H17V9.5H19.5z M18,18.5
	c-0.8,0-1.5-0.7-1.5-1.5s0.7-1.5,1.5-1.5s1.5,0.7,1.5,1.5S18.8,18.5,18,18.5z"/>
</svg>
